<svg id="my-svg" width="100%" xmlns="http://www.w3.org/2000/svg" xmlns:xlink="http://www.w3.org/1999/xlink" class="classDiagram" style="max-width: 377.656px; background-color: white;" viewBox="0 0 377.65625 162" role="graphics-document document" aria-roledescription="classDiagram"><style>#my-svg{font-family:"trebuchet ms",verdana,arial,sans-serif;font-size:16px;fill:#333;}@keyframes edge-animation-frame{from{stroke-dashoffset:0;}}@keyframes dash{to{stroke-dashoffset:0;}}#my-svg .edge-animation-slow{stroke-dasharray:9,5!important;stroke-dashoffset:900;animation:dash 50s linear infinite;stroke-linecap:round;}#my-svg .edge-animation-fast{stroke-dasharray:9,5!important;stroke-dashoffset:900;animation:dash 20s linear infinite;stroke-linecap:round;}#my-svg .error-icon{fill:#552222;}#my-svg .error-text{fill:#552222;stroke:#552222;}#my-svg .edge-thickness-normal{stroke-width:1px;}#my-svg .edge-thickness-thick{stroke-width:3.5px;}#my-svg .edge-pattern-solid{stroke-dasharray:0;}#my-svg .edge-thickness-invisible{stroke-width:0;fill:none;}#my-svg .edge-pattern-dashed{stroke-dasharray:3;}#my-svg .edge-pattern-dotted{stroke-dasharray:2;}#my-svg .marker{fill:#333333;stroke:#333333;}#my-svg .marker.cross{stroke:#333333;}#my-svg svg{font-family:"trebuchet ms",verdana,arial,sans-serif;font-size:16px;}#my-svg p{margin:0;}#my-svg g.classGroup text{fill:#9370DB;stroke:none;font-family:"trebuchet ms",verdana,arial,sans-serif;font-size:10px;}#my-svg g.classGroup text .title{font-weight:bolder;}#my-svg .cluster-label text{fill:#333;}#my-svg .cluster-label span{color:#333;}#my-svg .cluster-label span p{background-color:transparent;}#my-svg .cluster rect{fill:#ffffde;stroke:#aaaa33;stroke-width:1px;}#my-svg .cluster text{fill:#333;}#my-svg .cluster span{color:#333;}#my-svg .nodeLabel,#my-svg .edgeLabel{color:#131300;}#my-svg .noteLabel .nodeLabel,#my-svg .noteLabel .edgeLabel{color:black;}#my-svg .edgeLabel .label rect{fill:#ECECFF;}#my-svg .label text{fill:#131300;}#my-svg .labelBkg{background:#ECECFF;}#my-svg .edgeLabel .label span{background:#ECECFF;}#my-svg .classTitle{font-weight:bolder;}#my-svg .node rect,#my-svg .node circle,#my-svg .node ellipse,#my-svg .node polygon,#my-svg .node path{fill:#ECECFF;stroke:#9370DB;stroke-width:1;}#my-svg .divider{stroke:#9370DB;stroke-width:1;}#my-svg g.clickable{cursor:pointer;}#my-svg g.classGroup rect{fill:#ECECFF;stroke:#9370DB;}#my-svg g.classGroup line{stroke:#9370DB;stroke-width:1;}#my-svg .classLabel .box{stroke:none;stroke-width:0;fill:#ECECFF;opacity:0.5;}#my-svg .classLabel .label{fill:#9370DB;font-size:10px;}#my-svg .relation{stroke:#333333;stroke-width:1;fill:none;}#my-svg .dashed-line{stroke-dasharray:3;}#my-svg .dotted-line{stroke-dasharray:1 2;}#my-svg [id$="-compositionStart"],#my-svg .composition{fill:#333333!important;stroke:#333333!important;stroke-width:1;}#my-svg [id$="-compositionEnd"],#my-svg .composition{fill:#333333!important;stroke:#333333!important;stroke-width:1;}#my-svg [id$="-dependencyStart"],#my-svg .dependency{fill:#333333!important;stroke:#333333!important;stroke-width:1;}#my-svg [id$="-dependencyEnd"],#my-svg .dependency{fill:#333333!important;stroke:#333333!important;stroke-width:1;}#my-svg [id$="-extensionStart"],#my-svg .extension{fill:transparent!important;stroke:#333333!important;stroke-width:1;}#my-svg [id$="-extensionEnd"],#my-svg .extension{fill:transparent!important;stroke:#333333!important;stroke-width:1;}#my-svg [id$="-aggregationStart"],#my-svg .aggregation{fill:transparent!important;stroke:#333333!important;stroke-width:1;}#my-svg [id$="-aggregationEnd"],#my-svg .aggregation{fill:transparent!important;stroke:#333333!important;stroke-width:1;}#my-svg [id$="-lollipopStart"],#my-svg .lollipop{fill:#ECECFF!important;stroke:#333333!important;stroke-width:1;}#my-svg [id$="-lollipopEnd"],#my-svg .lollipop{fill:#ECECFF!important;stroke:#333333!important;stroke-width:1;}#my-svg .edgeTerminals{font-size:11px;line-height:initial;}#my-svg .classTitleText{text-anchor:middle;font-size:18px;fill:#333;}#my-svg .edgeLabel[data-look="neo"]{background-color:rgba(232,232,232, 0.8);text-align:center;}#my-svg .edgeLabel[data-look="neo"] p{background-color:rgba(232,232,232, 0.8);}#my-svg .edgeLabel[data-look="neo"] rect{opacity:0.5;background-color:rgba(232,232,232, 0.8);fill:rgba(232,232,232, 0.8);}#my-svg .label-icon{display:inline-block;height:1em;overflow:visible;vertical-align:-0.125em;}#my-svg .node .label-icon path{fill:currentColor;stroke:revert;stroke-width:revert;}#my-svg .node .neo-node{stroke:#9370DB;}#my-svg [data-look="neo"].node rect,#my-svg [data-look="neo"].cluster rect,#my-svg [data-look="neo"].node polygon{stroke:#9370DB;filter:drop-shadow(1px 2px 2px rgba(185, 185, 185, 1));}#my-svg [data-look="neo"].swimlane.cluster rect{filter:none;}#my-svg [data-look="neo"].node path{stroke:#9370DB;stroke-width:1px;}#my-svg [data-look="neo"].node .outer-path{filter:drop-shadow(1px 2px 2px rgba(185, 185, 185, 1));}#my-svg [data-look="neo"].node .neo-line path{stroke:#9370DB;filter:none;}#my-svg [data-look="neo"].node circle{stroke:#9370DB;filter:drop-shadow(1px 2px 2px rgba(185, 185, 185, 1));}#my-svg [data-look="neo"].node circle .state-start{fill:#000000;}#my-svg [data-look="neo"].icon-shape .icon{fill:#9370DB;filter:drop-shadow(1px 2px 2px rgba(185, 185, 185, 1));}#my-svg [data-look="neo"].icon-shape .icon-neo path{stroke:#9370DB;filter:drop-shadow(1px 2px 2px rgba(185, 185, 185, 1));}#my-svg :root{--mermaid-font-family:"trebuchet ms",verdana,arial,sans-serif;}#my-svg .static&gt;*{fill:rgb(255, 224, 179)!important;stroke:rgb(230, 145, 56)!important;stroke-width:2px!important;}#my-svg .static span{fill:rgb(255, 224, 179)!important;stroke:rgb(230, 145, 56)!important;stroke-width:2px!important;}</style><g><defs><marker id="my-svg_classDiagram-aggregationStart" class="marker aggregation classDiagram" refX="18" refY="7" markerWidth="190" markerHeight="240" orient="auto" markerUnits="userSpaceOnUse"><path d="M 18,7 L9,13 L1,7 L9,1 Z"/></marker></defs><defs><marker id="my-svg_classDiagram-aggregationEnd" class="marker aggregation classDiagram" refX="1" refY="7" markerWidth="20" markerHeight="28" orient="auto" markerUnits="userSpaceOnUse"><path d="M 18,7 L9,13 L1,7 L9,1 Z"/></marker></defs><defs><marker id="my-svg_classDiagram-aggregationStart-margin" class="marker aggregation classDiagram" refX="15" refY="7" markerWidth="190" markerHeight="240" orient="auto" markerUnits="userSpaceOnUse"><path d="M 18,7 L9,13 L1,7 L9,1 Z" style="stroke-width: 2;"/></marker></defs><defs><marker id="my-svg_classDiagram-aggregationEnd-margin" class="marker aggregation classDiagram" refX="1" refY="7" markerWidth="20" markerHeight="28" orient="auto" markerUnits="userSpaceOnUse"><path d="M 18,7 L9,13 L1,7 L9,1 Z" style="stroke-width: 2;"/></marker></defs><defs><marker id="my-svg_classDiagram-extensionStart" class="marker extension classDiagram" refX="18" refY="7" markerWidth="20" markerHeight="28" orient="auto" markerUnits="userSpaceOnUse"><path d="M 1,7 L18,13 V 1 Z"/></marker></defs><defs><marker id="my-svg_classDiagram-extensionEnd" class="marker extension classDiagram" refX="1" refY="7" markerWidth="20" markerHeight="28" orient="auto" markerUnits="userSpaceOnUse"><path d="M 1,1 V 13 L18,7 Z"/></marker></defs><marker id="my-svg_classDiagram-extensionStart-margin" class="marker extension classDiagram" refX="18" refY="7" markerWidth="20" markerHeight="28" orient="auto" markerUnits="userSpaceOnUse" viewBox="0 0 20 14"><polygon points="10,7 18,13 18,1" style="stroke-width: 2; stroke-dasharray: 0;"/></marker><defs><marker id="my-svg_classDiagram-extensionEnd-margin" class="marker extension classDiagram" refX="9" refY="7" markerWidth="20" markerHeight="28" orient="auto" markerUnits="userSpaceOnUse" viewBox="0 0 20 14"><polygon points="10,1 10,13 18,7" style="stroke-width: 2; stroke-dasharray: 0;"/></marker></defs><defs><marker id="my-svg_classDiagram-compositionStart" class="marker composition classDiagram" refX="18" refY="7" markerWidth="190" markerHeight="240" orient="auto" markerUnits="userSpaceOnUse"><path d="M 18,7 L9,13 L1,7 L9,1 Z"/></marker></defs><defs><marker id="my-svg_classDiagram-compositionEnd" class="marker composition classDiagram" refX="1" refY="7" markerWidth="20" markerHeight="28" orient="auto" markerUnits="userSpaceOnUse"><path d="M 18,7 L9,13 L1,7 L9,1 Z"/></marker></defs><defs><marker id="my-svg_classDiagram-compositionStart-margin" class="marker composition classDiagram" refX="15" refY="7" markerWidth="190" markerHeight="240" orient="auto" markerUnits="userSpaceOnUse"><path viewBox="0 0 15 15" d="M 18,7 L9,13 L1,7 L9,1 Z" style="stroke-width: 0;"/></marker></defs><defs><marker id="my-svg_classDiagram-compositionEnd-margin" class="marker composition classDiagram" refX="3.5" refY="7" markerWidth="20" markerHeight="28" orient="auto" markerUnits="userSpaceOnUse"><path d="M 18,7 L9,13 L1,7 L9,1 Z" style="stroke-width: 0;"/></marker></defs><defs><marker id="my-svg_classDiagram-dependencyStart" class="marker dependency classDiagram" refX="6" refY="7" markerWidth="190" markerHeight="240" orient="auto" markerUnits="userSpaceOnUse"><path d="M 5,7 L9,13 L1,7 L9,1 Z"/></marker></defs><defs><marker id="my-svg_classDiagram-dependencyEnd" class="marker dependency classDiagram" refX="13" refY="7" markerWidth="20" markerHeight="28" orient="auto" markerUnits="userSpaceOnUse"><path d="M 18,7 L9,13 L14,7 L9,1 Z"/></marker></defs><defs><marker id="my-svg_classDiagram-dependencyStart-margin" class="marker dependency classDiagram" refX="4" refY="7" markerWidth="190" markerHeight="240" orient="auto" markerUnits="userSpaceOnUse"><path d="M 5,7 L9,13 L1,7 L9,1 Z" style="stroke-width: 0;"/></marker></defs><defs><marker id="my-svg_classDiagram-dependencyEnd-margin" class="marker dependency classDiagram" refX="16" refY="7" markerWidth="20" markerHeight="28" orient="auto" markerUnits="userSpaceOnUse"><path d="M 18,7 L9,13 L14,7 L9,1 Z" style="stroke-width: 0;"/></marker></defs><defs><marker id="my-svg_classDiagram-lollipopStart" class="marker lollipop classDiagram" refX="13" refY="7" markerWidth="190" markerHeight="240" orient="auto" markerUnits="userSpaceOnUse"><circle fill="transparent" cx="7" cy="7" r="6"/></marker></defs><defs><marker id="my-svg_classDiagram-lollipopEnd" class="marker lollipop classDiagram" refX="1" refY="7" markerWidth="190" markerHeight="240" orient="auto" markerUnits="userSpaceOnUse"><circle fill="transparent" cx="7" cy="7" r="6"/></marker></defs><defs><marker id="my-svg_classDiagram-lollipopStart-margin" class="marker lollipop classDiagram" refX="13" refY="7" markerWidth="190" markerHeight="240" orient="auto" markerUnits="userSpaceOnUse"><circle fill="transparent" cx="7" cy="7" r="6" stroke-width="2"/></marker></defs><defs><marker id="my-svg_classDiagram-lollipopEnd-margin" class="marker lollipop classDiagram" refX="1" refY="7" markerWidth="190" markerHeight="240" orient="auto" markerUnits="userSpaceOnUse"><circle fill="transparent" cx="7" cy="7" r="6" stroke-width="2"/></marker></defs><g class="root"><g class="clusters"/><g class="edgePaths"><path d="M88.516,81L92.682,81C96.849,81,105.182,81,110.641,81C116.099,81,118.682,81,119.974,81L121.266,81" id="my-svg-id_form_static_1" class="edge-thickness-normal edge-pattern-solid relation" style=";;;" data-edge="true" data-et="edge" data-id="id_form_static_1" data-points="W3sieCI6ODguNTE1NjI1LCJ5Ijo4MX0seyJ4IjoxMTMuNTE1NjI1LCJ5Ijo4MX0seyJ4IjoxMzguNTE1NjI1LCJ5Ijo4MX1d" data-look="classic" marker-end="url(#my-svg_classDiagram-compositionEnd)"/><path d="M228.829,46.916L232.279,44.43C235.73,41.944,242.63,36.972,250.248,34.486C257.865,32,266.198,32,270.365,32L274.531,32" id="my-svg-id_static_widget_2" class="edge-thickness-normal edge-pattern-solid relation" style=";;;" data-edge="true" data-et="edge" data-id="id_static_widget_2" data-points="W3sieCI6MjE0LjgzMzM4NjQ3OTU5MTg0LCJ5Ijo1N30seyJ4IjoyNDkuNTMxMjUsInkiOjMyfSx7IngiOjI3NC41MzEyNSwieSI6MzJ9XQ==" data-look="classic" marker-start="url(#my-svg_classDiagram-extensionStart)"/><path d="M214.833,105L220.616,109.167C226.399,113.333,237.965,121.667,247.367,125.833C256.768,130,264.005,130,267.624,130L271.242,130" id="my-svg-id_static_colors_3" class="edge-thickness-normal edge-pattern-dashed relation" style=";;;" data-edge="true" data-et="edge" data-id="id_static_colors_3" data-points="W3sieCI6MjE0LjgzMzM4NjQ3OTU5MTg0LCJ5IjoxMDV9LHsieCI6MjQ5LjUzMTI1LCJ5IjoxMzB9LHsieCI6Mjc3LjI0MjE4NzUsInkiOjEzMH1d" data-look="classic" marker-end="url(#my-svg_classDiagram-dependencyEnd)"/></g><g class="edgeLabels"><g class="edgeLabel"><g class="label" data-id="id_form_static_1" transform="translate(0, 0)"><foreignObject width="0" height="0"><div xmlns="http://www.w3.org/1999/xhtml" class="labelBkg" style="display: table-cell; white-space: nowrap; line-height: 1.5; max-width: 200px; text-align: center;"><span class="edgeLabel"></span></div></foreignObject></g></g><g class="edgeLabel"><g class="label" data-id="id_static_widget_2" transform="translate(0, 0)"><foreignObject width="0" height="0"><div xmlns="http://www.w3.org/1999/xhtml" class="labelBkg" style="display: table-cell; white-space: nowrap; line-height: 1.5; max-width: 200px; text-align: center;"><span class="edgeLabel"></span></div></foreignObject></g></g><g class="edgeLabel"><g class="label" data-id="id_static_colors_3" transform="translate(0, 0)"><foreignObject width="0" height="0"><div xmlns="http://www.w3.org/1999/xhtml" class="labelBkg" style="display: table-cell; white-space: nowrap; line-height: 1.5; max-width: 200px; text-align: center;"><span class="edgeLabel"></span></div></foreignObject></g></g></g><g class="nodes"><g class="node default" id="my-svg-classId-form-0" data-look="classic" transform="translate(48.2578125, 81)"><g class="basic label-container outer-path"><path d="M-40.2578125 -24 L40.2578125 -24 L40.2578125 24 L-40.2578125 24" stroke="none" stroke-width="0" fill="#ECECFF" style=""/><path d="M-40.2578125 -24 C-19.489405906217996 -24, 1.2790006875640074 -24, 40.2578125 -24 M-40.2578125 -24 C-12.218008139508317 -24, 15.821796220983366 -24, 40.2578125 -24 M40.2578125 -24 C40.2578125 -14.04569643194937, 40.2578125 -4.09139286389874, 40.2578125 24 M40.2578125 -24 C40.2578125 -10.119144819008271, 40.2578125 3.7617103619834573, 40.2578125 24 M40.2578125 24 C23.372219504117087 24, 6.486626508234174 24, -40.2578125 24 M40.2578125 24 C18.91737305407659 24, -2.4230663918468167 24, -40.2578125 24 M-40.2578125 24 C-40.2578125 9.01518904074198, -40.2578125 -5.96962191851604, -40.2578125 -24 M-40.2578125 24 C-40.2578125 11.918833327876467, -40.2578125 -0.1623333442470667, -40.2578125 -24" stroke="#9370DB" stroke-width="1.3" fill="none" stroke-dasharray="0 0" style=""/></g><g class="annotation-group text" transform="translate(0, 0)"/><g class="label-group text" transform="translate(-28.2578125, 0)"><g class="label" style="font-weight: bolder" transform="translate(0,-12)"><foreignObject width="56.515625" height="24"><div xmlns="http://www.w3.org/1999/xhtml" style="display: table-cell; white-space: nowrap; line-height: 1.5; max-width: 98px; text-align: center;"><span class="nodeLabel markdown-node-label" style=""><p>cs.form</p></span></div></foreignObject></g></g><g class="members-group text" transform="translate(-28.2578125, 48)"/><g class="methods-group text" transform="translate(-28.2578125, 78)"/></g><g class="node default focus" id="my-svg-classId-static-1" data-look="classic" transform="translate(181.5234375, 81)"><g class="basic label-container outer-path"><path d="M-43.0078125 -24 L43.0078125 -24 L43.0078125 24 L-43.0078125 24" stroke="none" stroke-width="0" fill="#ffe0b3" style="fill:#ffe0b3;stroke:#e69138;stroke-width:2px"/><path d="M-43.0078125 -24 C-10.758707174485927 -24, 21.490398151028145 -24, 43.0078125 -24 M-43.0078125 -24 C-21.53829274202698 -24, -0.06877298405395749 -24, 43.0078125 -24 M43.0078125 -24 C43.0078125 -6.37875706512526, 43.0078125 11.24248586974948, 43.0078125 24 M43.0078125 -24 C43.0078125 -13.813532467932305, 43.0078125 -3.6270649358646097, 43.0078125 24 M43.0078125 24 C10.532256963952392 24, -21.943298572095216 24, -43.0078125 24 M43.0078125 24 C10.056727358464762 24, -22.894357783070475 24, -43.0078125 24 M-43.0078125 24 C-43.0078125 9.505482660695298, -43.0078125 -4.9890346786094035, -43.0078125 -24 M-43.0078125 24 C-43.0078125 12.847584102688417, -43.0078125 1.6951682053768344, -43.0078125 -24" stroke="#e69138" stroke-width="2" fill="none" stroke-dasharray="0 0" style="fill:#ffe0b3;stroke:#e69138;stroke-width:2px"/></g><g class="annotation-group text" transform="translate(0, 0)"/><g class="label-group text" transform="translate(-31.0078125, 0)"><g class="label" style="font-weight: bolder" transform="translate(0,-12)"><foreignObject width="62.015625" height="24"><div xmlns="http://www.w3.org/1999/xhtml" style="display: table-cell; white-space: nowrap; line-height: 1.5; max-width: 101px; text-align: center;"><span class="nodeLabel markdown-node-label" style="fill:#ffe0b3;stroke:#e69138;stroke-width:2px"><p>cs.static</p></span></div></foreignObject></g></g><g class="members-group text" transform="translate(-31.0078125, 48)"/><g class="methods-group text" transform="translate(-31.0078125, 78)"/></g><g class="node default" id="my-svg-classId-widget-2" data-look="classic" transform="translate(322.09375, 32)"><g class="basic label-container outer-path"><path d="M-47.5625 -24 L47.5625 -24 L47.5625 24 L-47.5625 24" stroke="none" stroke-width="0" fill="#ECECFF" style=""/><path d="M-47.5625 -24 C-27.659243959348238 -24, -7.755987918696476 -24, 47.5625 -24 M-47.5625 -24 C-13.747539438999404 -24, 20.067421122001193 -24, 47.5625 -24 M47.5625 -24 C47.5625 -8.663237016807054, 47.5625 6.673525966385892, 47.5625 24 M47.5625 -24 C47.5625 -13.947149677209943, 47.5625 -3.8942993544198856, 47.5625 24 M47.5625 24 C10.001443500681582 24, -27.559612998636837 24, -47.5625 24 M47.5625 24 C24.876747275881208 24, 2.190994551762415 24, -47.5625 24 M-47.5625 24 C-47.5625 10.93559997752209, -47.5625 -2.1288000449558204, -47.5625 -24 M-47.5625 24 C-47.5625 12.715699460070134, -47.5625 1.4313989201402677, -47.5625 -24" stroke="#9370DB" stroke-width="1.3" fill="none" stroke-dasharray="0 0" style=""/></g><g class="annotation-group text" transform="translate(0, 0)"/><g class="label-group text" transform="translate(-35.5625, 0)"><g class="label" style="font-weight: bolder" transform="translate(0,-12)"><foreignObject width="71.125" height="24"><div xmlns="http://www.w3.org/1999/xhtml" style="display: table-cell; white-space: nowrap; line-height: 1.5; max-width: 111px; text-align: center;"><span class="nodeLabel markdown-node-label" style=""><p>cs.widget</p></span></div></foreignObject></g></g><g class="members-group text" transform="translate(-35.5625, 48)"/><g class="methods-group text" transform="translate(-35.5625, 78)"/></g><g class="node default" id="my-svg-classId-colors-3" data-look="classic" transform="translate(322.09375, 130)"><g class="basic label-container outer-path"><path d="M-44.8515625 -24 L44.8515625 -24 L44.8515625 24 L-44.8515625 24" stroke="none" stroke-width="0" fill="#ECECFF" style=""/><path d="M-44.8515625 -24 C-8.981225172808166 -24, 26.889112154383668 -24, 44.8515625 -24 M-44.8515625 -24 C-19.67283255124381 -24, 5.505897397512378 -24, 44.8515625 -24 M44.8515625 -24 C44.8515625 -13.292871143315683, 44.8515625 -2.5857422866313655, 44.8515625 24 M44.8515625 -24 C44.8515625 -6.89136808755913, 44.8515625 10.21726382488174, 44.8515625 24 M44.8515625 24 C18.425679219721644 24, -8.000204060556712 24, -44.8515625 24 M44.8515625 24 C19.770729297458768 24, -5.310103905082464 24, -44.8515625 24 M-44.8515625 24 C-44.8515625 8.85463029737265, -44.8515625 -6.290739405254701, -44.8515625 -24 M-44.8515625 24 C-44.8515625 13.635060867998686, -44.8515625 3.270121735997371, -44.8515625 -24" stroke="#9370DB" stroke-width="1.3" fill="none" stroke-dasharray="0 0" style=""/></g><g class="annotation-group text" transform="translate(0, 0)"/><g class="label-group text" transform="translate(-32.8515625, 0)"><g class="label" style="font-weight: bolder" transform="translate(0,-12)"><foreignObject width="65.703125" height="24"><div xmlns="http://www.w3.org/1999/xhtml" style="display: table-cell; white-space: nowrap; line-height: 1.5; max-width: 106px; text-align: center;"><span class="nodeLabel markdown-node-label" style=""><p>cs.colors</p></span></div></foreignObject></g></g><g class="members-group text" transform="translate(-32.8515625, 48)"/><g class="methods-group text" transform="translate(-32.8515625, 78)"/></g></g></g></g><defs><filter id="my-svg-drop-shadow" height="130%" width="130%"><feDropShadow dx="4" dy="4" stdDeviation="0" flood-opacity="0.06" flood-color="#000000"/></filter></defs><defs><filter id="my-svg-drop-shadow-small" height="150%" width="150%"><feDropShadow dx="2" dy="2" stdDeviation="0" flood-opacity="0.06" flood-color="#000000"/></filter></defs></svg>