<svg id="my-svg" width="100%" xmlns="http://www.w3.org/2000/svg" xmlns:xlink="http://www.w3.org/1999/xlink" class="classDiagram" style="max-width: 563.312px; background-color: white;" viewBox="0 0 563.3125 64" role="graphics-document document" aria-roledescription="classDiagram"><style>#my-svg{font-family:"trebuchet ms",verdana,arial,sans-serif;font-size:16px;fill:#333;}@keyframes edge-animation-frame{from{stroke-dashoffset:0;}}@keyframes dash{to{stroke-dashoffset:0;}}#my-svg .edge-animation-slow{stroke-dasharray:9,5!important;stroke-dashoffset:900;animation:dash 50s linear infinite;stroke-linecap:round;}#my-svg .edge-animation-fast{stroke-dasharray:9,5!important;stroke-dashoffset:900;animation:dash 20s linear infinite;stroke-linecap:round;}#my-svg .error-icon{fill:#552222;}#my-svg .error-text{fill:#552222;stroke:#552222;}#my-svg .edge-thickness-normal{stroke-width:1px;}#my-svg .edge-thickness-thick{stroke-width:3.5px;}#my-svg .edge-pattern-solid{stroke-dasharray:0;}#my-svg .edge-thickness-invisible{stroke-width:0;fill:none;}#my-svg .edge-pattern-dashed{stroke-dasharray:3;}#my-svg .edge-pattern-dotted{stroke-dasharray:2;}#my-svg .marker{fill:#333333;stroke:#333333;}#my-svg .marker.cross{stroke:#333333;}#my-svg svg{font-family:"trebuchet ms",verdana,arial,sans-serif;font-size:16px;}#my-svg p{margin:0;}#my-svg g.classGroup text{fill:#9370DB;stroke:none;font-family:"trebuchet ms",verdana,arial,sans-serif;font-size:10px;}#my-svg g.classGroup text .title{font-weight:bolder;}#my-svg .cluster-label text{fill:#333;}#my-svg .cluster-label span{color:#333;}#my-svg .cluster-label span p{background-color:transparent;}#my-svg .cluster rect{fill:#ffffde;stroke:#aaaa33;stroke-width:1px;}#my-svg .cluster text{fill:#333;}#my-svg .cluster span{color:#333;}#my-svg .nodeLabel,#my-svg .edgeLabel{color:#131300;}#my-svg .noteLabel .nodeLabel,#my-svg .noteLabel .edgeLabel{color:black;}#my-svg .edgeLabel .label rect{fill:#ECECFF;}#my-svg .label text{fill:#131300;}#my-svg .labelBkg{background:#ECECFF;}#my-svg .edgeLabel .label span{background:#ECECFF;}#my-svg .classTitle{font-weight:bolder;}#my-svg .node rect,#my-svg .node circle,#my-svg .node ellipse,#my-svg .node polygon,#my-svg .node path{fill:#ECECFF;stroke:#9370DB;stroke-width:1;}#my-svg .divider{stroke:#9370DB;stroke-width:1;}#my-svg g.clickable{cursor:pointer;}#my-svg g.classGroup rect{fill:#ECECFF;stroke:#9370DB;}#my-svg g.classGroup line{stroke:#9370DB;stroke-width:1;}#my-svg .classLabel .box{stroke:none;stroke-width:0;fill:#ECECFF;opacity:0.5;}#my-svg .classLabel .label{fill:#9370DB;font-size:10px;}#my-svg .relation{stroke:#333333;stroke-width:1;fill:none;}#my-svg .dashed-line{stroke-dasharray:3;}#my-svg .dotted-line{stroke-dasharray:1 2;}#my-svg [id$="-compositionStart"],#my-svg .composition{fill:#333333!important;stroke:#333333!important;stroke-width:1;}#my-svg [id$="-compositionEnd"],#my-svg .composition{fill:#333333!important;stroke:#333333!important;stroke-width:1;}#my-svg [id$="-dependencyStart"],#my-svg .dependency{fill:#333333!important;stroke:#333333!important;stroke-width:1;}#my-svg [id$="-dependencyEnd"],#my-svg .dependency{fill:#333333!important;stroke:#333333!important;stroke-width:1;}#my-svg [id$="-extensionStart"],#my-svg .extension{fill:transparent!important;stroke:#333333!important;stroke-width:1;}#my-svg [id$="-extensionEnd"],#my-svg .extension{fill:transparent!important;stroke:#333333!important;stroke-width:1;}#my-svg [id$="-aggregationStart"],#my-svg .aggregation{fill:transparent!important;stroke:#333333!important;stroke-width:1;}#my-svg [id$="-aggregationEnd"],#my-svg .aggregation{fill:transparent!important;stroke:#333333!important;stroke-width:1;}#my-svg [id$="-lollipopStart"],#my-svg .lollipop{fill:#ECECFF!important;stroke:#333333!important;stroke-width:1;}#my-svg [id$="-lollipopEnd"],#my-svg .lollipop{fill:#ECECFF!important;stroke:#333333!important;stroke-width:1;}#my-svg .edgeTerminals{font-size:11px;line-height:initial;}#my-svg .classTitleText{text-anchor:middle;font-size:18px;fill:#333;}#my-svg .edgeLabel[data-look="neo"]{background-color:rgba(232,232,232, 0.8);text-align:center;}#my-svg .edgeLabel[data-look="neo"] p{background-color:rgba(232,232,232, 0.8);}#my-svg .edgeLabel[data-look="neo"] rect{opacity:0.5;background-color:rgba(232,232,232, 0.8);fill:rgba(232,232,232, 0.8);}#my-svg .label-icon{display:inline-block;height:1em;overflow:visible;vertical-align:-0.125em;}#my-svg .node .label-icon path{fill:currentColor;stroke:revert;stroke-width:revert;}#my-svg .node .neo-node{stroke:#9370DB;}#my-svg [data-look="neo"].node rect,#my-svg [data-look="neo"].cluster rect,#my-svg [data-look="neo"].node polygon{stroke:#9370DB;filter:drop-shadow(1px 2px 2px rgba(185, 185, 185, 1));}#my-svg [data-look="neo"].swimlane.cluster rect{filter:none;}#my-svg [data-look="neo"].node path{stroke:#9370DB;stroke-width:1px;}#my-svg [data-look="neo"].node .outer-path{filter:drop-shadow(1px 2px 2px rgba(185, 185, 185, 1));}#my-svg [data-look="neo"].node .neo-line path{stroke:#9370DB;filter:none;}#my-svg [data-look="neo"].node circle{stroke:#9370DB;filter:drop-shadow(1px 2px 2px rgba(185, 185, 185, 1));}#my-svg [data-look="neo"].node circle .state-start{fill:#000000;}#my-svg [data-look="neo"].icon-shape .icon{fill:#9370DB;filter:drop-shadow(1px 2px 2px rgba(185, 185, 185, 1));}#my-svg [data-look="neo"].icon-shape .icon-neo path{stroke:#9370DB;filter:drop-shadow(1px 2px 2px rgba(185, 185, 185, 1));}#my-svg :root{--mermaid-font-family:"trebuchet ms",verdana,arial,sans-serif;}#my-svg .picture&gt;*{fill:rgb(255, 224, 179)!important;stroke:rgb(230, 145, 56)!important;stroke-width:2px!important;}#my-svg .picture span{fill:rgb(255, 224, 179)!important;stroke:rgb(230, 145, 56)!important;stroke-width:2px!important;}</style><g><defs><marker id="my-svg_classDiagram-aggregationStart" class="marker aggregation classDiagram" refX="18" refY="7" markerWidth="190" markerHeight="240" orient="auto" markerUnits="userSpaceOnUse"><path d="M 18,7 L9,13 L1,7 L9,1 Z"/></marker></defs><defs><marker id="my-svg_classDiagram-aggregationEnd" class="marker aggregation classDiagram" refX="1" refY="7" markerWidth="20" markerHeight="28" orient="auto" markerUnits="userSpaceOnUse"><path d="M 18,7 L9,13 L1,7 L9,1 Z"/></marker></defs><defs><marker id="my-svg_classDiagram-aggregationStart-margin" class="marker aggregation classDiagram" refX="15" refY="7" markerWidth="190" markerHeight="240" orient="auto" markerUnits="userSpaceOnUse"><path d="M 18,7 L9,13 L1,7 L9,1 Z" style="stroke-width: 2;"/></marker></defs><defs><marker id="my-svg_classDiagram-aggregationEnd-margin" class="marker aggregation classDiagram" refX="1" refY="7" markerWidth="20" markerHeight="28" orient="auto" markerUnits="userSpaceOnUse"><path d="M 18,7 L9,13 L1,7 L9,1 Z" style="stroke-width: 2;"/></marker></defs><defs><marker id="my-svg_classDiagram-extensionStart" class="marker extension classDiagram" refX="18" refY="7" markerWidth="20" markerHeight="28" orient="auto" markerUnits="userSpaceOnUse"><path d="M 1,7 L18,13 V 1 Z"/></marker></defs><defs><marker id="my-svg_classDiagram-extensionEnd" class="marker extension classDiagram" refX="1" refY="7" markerWidth="20" markerHeight="28" orient="auto" markerUnits="userSpaceOnUse"><path d="M 1,1 V 13 L18,7 Z"/></marker></defs><marker id="my-svg_classDiagram-extensionStart-margin" class="marker extension classDiagram" refX="18" refY="7" markerWidth="20" markerHeight="28" orient="auto" markerUnits="userSpaceOnUse" viewBox="0 0 20 14"><polygon points="10,7 18,13 18,1" style="stroke-width: 2; stroke-dasharray: 0;"/></marker><defs><marker id="my-svg_classDiagram-extensionEnd-margin" class="marker extension classDiagram" refX="9" refY="7" markerWidth="20" markerHeight="28" orient="auto" markerUnits="userSpaceOnUse" viewBox="0 0 20 14"><polygon points="10,1 10,13 18,7" style="stroke-width: 2; stroke-dasharray: 0;"/></marker></defs><defs><marker id="my-svg_classDiagram-compositionStart" class="marker composition classDiagram" refX="18" refY="7" markerWidth="190" markerHeight="240" orient="auto" markerUnits="userSpaceOnUse"><path d="M 18,7 L9,13 L1,7 L9,1 Z"/></marker></defs><defs><marker id="my-svg_classDiagram-compositionEnd" class="marker composition classDiagram" refX="1" refY="7" markerWidth="20" markerHeight="28" orient="auto" markerUnits="userSpaceOnUse"><path d="M 18,7 L9,13 L1,7 L9,1 Z"/></marker></defs><defs><marker id="my-svg_classDiagram-compositionStart-margin" class="marker composition classDiagram" refX="15" refY="7" markerWidth="190" markerHeight="240" orient="auto" markerUnits="userSpaceOnUse"><path viewBox="0 0 15 15" d="M 18,7 L9,13 L1,7 L9,1 Z" style="stroke-width: 0;"/></marker></defs><defs><marker id="my-svg_classDiagram-compositionEnd-margin" class="marker composition classDiagram" refX="3.5" refY="7" markerWidth="20" markerHeight="28" orient="auto" markerUnits="userSpaceOnUse"><path d="M 18,7 L9,13 L1,7 L9,1 Z" style="stroke-width: 0;"/></marker></defs><defs><marker id="my-svg_classDiagram-dependencyStart" class="marker dependency classDiagram" refX="6" refY="7" markerWidth="190" markerHeight="240" orient="auto" markerUnits="userSpaceOnUse"><path d="M 5,7 L9,13 L1,7 L9,1 Z"/></marker></defs><defs><marker id="my-svg_classDiagram-dependencyEnd" class="marker dependency classDiagram" refX="13" refY="7" markerWidth="20" markerHeight="28" orient="auto" markerUnits="userSpaceOnUse"><path d="M 18,7 L9,13 L14,7 L9,1 Z"/></marker></defs><defs><marker id="my-svg_classDiagram-dependencyStart-margin" class="marker dependency classDiagram" refX="4" refY="7" markerWidth="190" markerHeight="240" orient="auto" markerUnits="userSpaceOnUse"><path d="M 5,7 L9,13 L1,7 L9,1 Z" style="stroke-width: 0;"/></marker></defs><defs><marker id="my-svg_classDiagram-dependencyEnd-margin" class="marker dependency classDiagram" refX="16" refY="7" markerWidth="20" markerHeight="28" orient="auto" markerUnits="userSpaceOnUse"><path d="M 18,7 L9,13 L14,7 L9,1 Z" style="stroke-width: 0;"/></marker></defs><defs><marker id="my-svg_classDiagram-lollipopStart" class="marker lollipop classDiagram" refX="13" refY="7" markerWidth="190" markerHeight="240" orient="auto" markerUnits="userSpaceOnUse"><circle fill="transparent" cx="7" cy="7" r="6"/></marker></defs><defs><marker id="my-svg_classDiagram-lollipopEnd" class="marker lollipop classDiagram" refX="1" refY="7" markerWidth="190" markerHeight="240" orient="auto" markerUnits="userSpaceOnUse"><circle fill="transparent" cx="7" cy="7" r="6"/></marker></defs><defs><marker id="my-svg_classDiagram-lollipopStart-margin" class="marker lollipop classDiagram" refX="13" refY="7" markerWidth="190" markerHeight="240" orient="auto" markerUnits="userSpaceOnUse"><circle fill="transparent" cx="7" cy="7" r="6" stroke-width="2"/></marker></defs><defs><marker id="my-svg_classDiagram-lollipopEnd-margin" class="marker lollipop classDiagram" refX="1" refY="7" markerWidth="190" markerHeight="240" orient="auto" markerUnits="userSpaceOnUse"><circle fill="transparent" cx="7" cy="7" r="6" stroke-width="2"/></marker></defs><g class="root"><g class="clusters"/><g class="edgePaths"><path d="M111.266,32L112.557,32C113.849,32,116.432,32,121.891,32C127.349,32,135.682,32,139.849,32L144.016,32" id="my-svg-id_static_widget_1" class="edge-thickness-normal edge-pattern-solid relation" style=";;;" data-edge="true" data-et="edge" data-id="id_static_widget_1" data-points="W3sieCI6OTQuMDE1NjI1LCJ5IjozMn0seyJ4IjoxMTkuMDE1NjI1LCJ5IjozMn0seyJ4IjoxNDQuMDE1NjI1LCJ5IjozMn1d" data-look="classic" marker-start="url(#my-svg_classDiagram-extensionStart)"/><path d="M256.391,32L257.682,32C258.974,32,261.557,32,267.016,32C272.474,32,280.807,32,284.974,32L289.141,32" id="my-svg-id_widget_scrollable_2" class="edge-thickness-normal edge-pattern-solid relation" style=";;;" data-edge="true" data-et="edge" data-id="id_widget_scrollable_2" data-points="W3sieCI6MjM5LjE0MDYyNSwieSI6MzJ9LHsieCI6MjY0LjE0MDYyNSwieSI6MzJ9LHsieCI6Mjg5LjE0MDYyNSwieSI6MzJ9XQ==" data-look="classic" marker-start="url(#my-svg_classDiagram-extensionStart)"/><path d="M423.5,32L424.792,32C426.083,32,428.667,32,434.125,32C439.583,32,447.917,32,452.083,32L456.25,32" id="my-svg-id_scrollable_picture_3" class="edge-thickness-normal edge-pattern-solid relation" style=";;;" data-edge="true" data-et="edge" data-id="id_scrollable_picture_3" data-points="W3sieCI6NDA2LjI1LCJ5IjozMn0seyJ4Ijo0MzEuMjUsInkiOjMyfSx7IngiOjQ1Ni4yNSwieSI6MzJ9XQ==" data-look="classic" marker-start="url(#my-svg_classDiagram-extensionStart)"/></g><g class="edgeLabels"><g class="edgeLabel"><g class="label" data-id="id_static_widget_1" transform="translate(0, 0)"><foreignObject width="0" height="0"><div xmlns="http://www.w3.org/1999/xhtml" class="labelBkg" style="display: table-cell; white-space: nowrap; line-height: 1.5; max-width: 200px; text-align: center;"><span class="edgeLabel"></span></div></foreignObject></g></g><g class="edgeLabel"><g class="label" data-id="id_widget_scrollable_2" transform="translate(0, 0)"><foreignObject width="0" height="0"><div xmlns="http://www.w3.org/1999/xhtml" class="labelBkg" style="display: table-cell; white-space: nowrap; line-height: 1.5; max-width: 200px; text-align: center;"><span class="edgeLabel"></span></div></foreignObject></g></g><g class="edgeLabel"><g class="label" data-id="id_scrollable_picture_3" transform="translate(0, 0)"><foreignObject width="0" height="0"><div xmlns="http://www.w3.org/1999/xhtml" class="labelBkg" style="display: table-cell; white-space: nowrap; line-height: 1.5; max-width: 200px; text-align: center;"><span class="edgeLabel"></span></div></foreignObject></g></g></g><g class="nodes"><g class="node default" id="my-svg-classId-static-0" data-look="classic" transform="translate(51.0078125, 32)"><g class="basic label-container outer-path"><path d="M-43.0078125 -24 L43.0078125 -24 L43.0078125 24 L-43.0078125 24" stroke="none" stroke-width="0" fill="#ECECFF" style=""/><path d="M-43.0078125 -24 C-25.796926849466637 -24, -8.586041198933273 -24, 43.0078125 -24 M-43.0078125 -24 C-11.967698300298395 -24, 19.07241589940321 -24, 43.0078125 -24 M43.0078125 -24 C43.0078125 -11.32202130030906, 43.0078125 1.3559573993818788, 43.0078125 24 M43.0078125 -24 C43.0078125 -5.543070706064292, 43.0078125 12.913858587871417, 43.0078125 24 M43.0078125 24 C23.282313726619343 24, 3.5568149532386855 24, -43.0078125 24 M43.0078125 24 C21.595558948479606 24, 0.18330539695921289 24, -43.0078125 24 M-43.0078125 24 C-43.0078125 5.22899883628633, -43.0078125 -13.54200232742734, -43.0078125 -24 M-43.0078125 24 C-43.0078125 5.399368447774954, -43.0078125 -13.201263104450092, -43.0078125 -24" stroke="#9370DB" stroke-width="1.3" fill="none" stroke-dasharray="0 0" style=""/></g><g class="annotation-group text" transform="translate(0, 0)"/><g class="label-group text" transform="translate(-31.0078125, 0)"><g class="label" style="font-weight: bolder" transform="translate(0,-12)"><foreignObject width="62.015625" height="24"><div xmlns="http://www.w3.org/1999/xhtml" style="display: table-cell; white-space: nowrap; line-height: 1.5; max-width: 101px; text-align: center;"><span class="nodeLabel markdown-node-label" style=""><p>cs.static</p></span></div></foreignObject></g></g><g class="members-group text" transform="translate(-31.0078125, 48)"/><g class="methods-group text" transform="translate(-31.0078125, 78)"/></g><g class="node default" id="my-svg-classId-widget-1" data-look="classic" transform="translate(191.578125, 32)"><g class="basic label-container outer-path"><path d="M-47.5625 -24 L47.5625 -24 L47.5625 24 L-47.5625 24" stroke="none" stroke-width="0" fill="#ECECFF" style=""/><path d="M-47.5625 -24 C-27.325543575188014 -24, -7.0885871503760285 -24, 47.5625 -24 M-47.5625 -24 C-19.35365224058301 -24, 8.85519551883398 -24, 47.5625 -24 M47.5625 -24 C47.5625 -5.562991604179626, 47.5625 12.874016791640749, 47.5625 24 M47.5625 -24 C47.5625 -6.982863428105425, 47.5625 10.03427314378915, 47.5625 24 M47.5625 24 C17.13558947533559 24, -13.291321049328822 24, -47.5625 24 M47.5625 24 C25.85704241217136 24, 4.15158482434272 24, -47.5625 24 M-47.5625 24 C-47.5625 9.986692681660378, -47.5625 -4.026614636679245, -47.5625 -24 M-47.5625 24 C-47.5625 10.338968608650077, -47.5625 -3.3220627826998452, -47.5625 -24" stroke="#9370DB" stroke-width="1.3" fill="none" stroke-dasharray="0 0" style=""/></g><g class="annotation-group text" transform="translate(0, 0)"/><g class="label-group text" transform="translate(-35.5625, 0)"><g class="label" style="font-weight: bolder" transform="translate(0,-12)"><foreignObject width="71.125" height="24"><div xmlns="http://www.w3.org/1999/xhtml" style="display: table-cell; white-space: nowrap; line-height: 1.5; max-width: 111px; text-align: center;"><span class="nodeLabel markdown-node-label" style=""><p>cs.widget</p></span></div></foreignObject></g></g><g class="members-group text" transform="translate(-35.5625, 48)"/><g class="methods-group text" transform="translate(-35.5625, 78)"/></g><g class="node default" id="my-svg-classId-scrollable-2" data-look="classic" transform="translate(347.6953125, 32)"><g class="basic label-container outer-path"><path d="M-58.5546875 -24 L58.5546875 -24 L58.5546875 24 L-58.5546875 24" stroke="none" stroke-width="0" fill="#ECECFF" style=""/><path d="M-58.5546875 -24 C-26.88746409978144 -24, 4.779759300437121 -24, 58.5546875 -24 M-58.5546875 -24 C-15.095078497143128 -24, 28.364530505713745 -24, 58.5546875 -24 M58.5546875 -24 C58.5546875 -8.035422782858747, 58.5546875 7.9291544342825055, 58.5546875 24 M58.5546875 -24 C58.5546875 -5.945986636041756, 58.5546875 12.108026727916489, 58.5546875 24 M58.5546875 24 C32.58602439681256 24, 6.617361293625123 24, -58.5546875 24 M58.5546875 24 C22.565866150735715 24, -13.42295519852857 24, -58.5546875 24 M-58.5546875 24 C-58.5546875 10.645787457376304, -58.5546875 -2.7084250852473915, -58.5546875 -24 M-58.5546875 24 C-58.5546875 12.499003318398902, -58.5546875 0.998006636797804, -58.5546875 -24" stroke="#9370DB" stroke-width="1.3" fill="none" stroke-dasharray="0 0" style=""/></g><g class="annotation-group text" transform="translate(0, 0)"/><g class="label-group text" transform="translate(-46.5546875, 0)"><g class="label" style="font-weight: bolder" transform="translate(0,-12)"><foreignObject width="93.109375" height="24"><div xmlns="http://www.w3.org/1999/xhtml" style="display: table-cell; white-space: nowrap; line-height: 1.5; max-width: 130px; text-align: center;"><span class="nodeLabel markdown-node-label" style=""><p>cs.scrollable</p></span></div></foreignObject></g></g><g class="members-group text" transform="translate(-46.5546875, 48)"/><g class="methods-group text" transform="translate(-46.5546875, 78)"/></g><g class="node default focus" id="my-svg-classId-picture-3" data-look="classic" transform="translate(505.78125, 32)"><g class="basic label-container outer-path"><path d="M-49.53125 -24 L49.53125 -24 L49.53125 24 L-49.53125 24" stroke="none" stroke-width="0" fill="#ffe0b3" style="fill:#ffe0b3;stroke:#e69138;stroke-width:2px"/><path d="M-49.53125 -24 C-21.037224233510038 -24, 7.456801532979924 -24, 49.53125 -24 M-49.53125 -24 C-28.668299912246404 -24, -7.805349824492808 -24, 49.53125 -24 M49.53125 -24 C49.53125 -5.013373230186932, 49.53125 13.973253539626135, 49.53125 24 M49.53125 -24 C49.53125 -7.392606075671964, 49.53125 9.214787848656073, 49.53125 24 M49.53125 24 C17.839438116080622 24, -13.852373767838756 24, -49.53125 24 M49.53125 24 C18.768131420244355 24, -11.99498715951129 24, -49.53125 24 M-49.53125 24 C-49.53125 10.757479372128255, -49.53125 -2.4850412557434893, -49.53125 -24 M-49.53125 24 C-49.53125 12.212113054899834, -49.53125 0.4242261097996689, -49.53125 -24" stroke="#e69138" stroke-width="2" fill="none" stroke-dasharray="0 0" style="fill:#ffe0b3;stroke:#e69138;stroke-width:2px"/></g><g class="annotation-group text" transform="translate(0, 0)"/><g class="label-group text" transform="translate(-37.53125, 0)"><g class="label" style="font-weight: bolder" transform="translate(0,-12)"><foreignObject width="75.0625" height="24"><div xmlns="http://www.w3.org/1999/xhtml" style="display: table-cell; white-space: nowrap; line-height: 1.5; max-width: 112px; text-align: center;"><span class="nodeLabel markdown-node-label" style="fill:#ffe0b3;stroke:#e69138;stroke-width:2px"><p>cs.picture</p></span></div></foreignObject></g></g><g class="members-group text" transform="translate(-37.53125, 48)"/><g class="methods-group text" transform="translate(-37.53125, 78)"/></g></g></g></g><defs><filter id="my-svg-drop-shadow" height="130%" width="130%"><feDropShadow dx="4" dy="4" stdDeviation="0" flood-opacity="0.06" flood-color="#000000"/></filter></defs><defs><filter id="my-svg-drop-shadow-small" height="150%" width="150%"><feDropShadow dx="2" dy="2" stdDeviation="0" flood-opacity="0.06" flood-color="#000000"/></filter></defs></svg>